<?xml version="1.0" standalone="no"?><!-- Generator: Adobe Fireworks CS6, Export SVG Extension by Aaron Beall (http://fireworks.abeall.com) . Version: 0.6.1  --><!DOCTYPE svg PUBLIC "-//W3C//DTD SVG 1.1//EN" "http://www.w3.org/Graphics/SVG/1.1/DTD/svg11.dtd"><svg id="Untitled-Page%201" viewBox="0 0 17 16" style="background-color:#ffffff00" version="1.1"	xmlns="http://www.w3.org/2000/svg" xmlns:xlink="http://www.w3.org/1999/xlink" xml:space="preserve"	x="0px" y="0px" width="17px" height="16px">	<g id="Layer%201">		<path d="M 1.0714 13 C 0.4797 13.5523 0.4477 14.4477 1 15 C 1.5523 15.5523 2.4797 15.5523 3.0714 15 L 8.5 9.935 L 13.9286 15 C 14.5203 15.5523 15.4477 15.5523 16 15 C 16.5523 14.4477 16.5203 13.5523 15.9286 13 L 10.57 8 L 15.9286 3 C 16.5203 2.4477 16.5523 1.5523 16 1 C 15.4477 0.4477 14.5203 0.4477 13.9286 1 L 8.5 6.065 L 3.0714 1 C 2.4797 0.4477 1.5523 0.4477 1 1 C 0.4477 1.5523 0.4797 2.4477 1.0714 3 L 6.425 8 L 1.0714 13 Z" fill="#838370"/>	</g></svg>