<?xml version="1.0" standalone="no"?>
<!-- Generator: Adobe Fireworks 10, Export SVG Extension by Aaron Beall (http://fireworks.abeall.com) . Version: 0.6.1  -->
<!DOCTYPE svg PUBLIC "-//W3C//DTD SVG 1.1//EN" "http://www.w3.org/Graphics/SVG/1.1/DTD/svg11.dtd">
<svg id="Untitled-P%E1gina%201" viewBox="0 0 97 16" style="background-color:#ffffff00" version="1.1"
	xmlns="http://www.w3.org/2000/svg" xmlns:xlink="http://www.w3.org/1999/xlink" xml:space="preserve"
	x="0px" y="0px" width="97px" height="16px"
>
	<g id="Capa%201">
		<g>
			<path d="M 59.132 10.8267 C 60.647 10.8267 61.782 10.3374 61.7692 9.0962 C 61.7438 6.6206 55.5574 7.7437 55.5566 3.3472 C 55.5558 0.7539 57.9305 0.0864 60.136 0.084 C 61.0366 0.0825 61.9213 0.2285 62.6285 0.4375 C 62.9705 0.5381 63.1258 0.6328 63.1258 1.019 L 63.125 3.0708 L 61.4434 3.0708 L 61.4434 2.4614 C 61.4434 1.9102 60.6653 1.8208 60.2109 1.8193 C 59.2279 1.8169 57.7312 1.9512 57.7172 3.3062 C 57.693 5.6685 63.9297 4.6621 63.9297 9.0625 C 63.9297 11.4795 62.1218 12.563 59.0083 12.563 C 57.9758 12.563 56.8395 12.3486 55.8671 11.9819 C 55.5862 11.8755 55.4532 11.7573 55.4532 11.4585 L 55.4532 8.8672 L 57.3045 8.8672 L 57.3045 10.1279 C 57.3045 10.6855 58.6019 10.8267 59.132 10.8267 Z" fill="#555845"/>
			<path d="M 73.2967 10.9028 C 72.4385 11.9526 70.7902 12.4214 69.5186 12.4214 C 62.8274 12.4214 63.2397 3.5024 68.8425 3.5127 C 70.4648 3.5146 71.9311 4.4683 71.9311 6.2944 C 71.9311 8.6113 69.1308 9.7666 67.0151 9.2905 C 67.4415 10.124 68.3308 10.6968 69.8364 10.6895 C 71.3604 10.6895 72.639 9.8789 73.2967 8.6802 L 73.2967 5.3867 C 73.2967 5.1709 73.1086 4.9541 72.8614 4.9541 L 72.6469 4.9541 L 72.6469 3.6558 L 74.1606 3.6558 C 74.8289 3.6558 75.343 4.1455 75.4409 4.7461 C 76.1855 3.9927 77.1037 3.6558 78.1518 3.6558 C 79.4117 3.6558 80.2113 4.4902 80.2117 5.7378 L 80.2117 10.1309 C 80.2117 10.5625 80.5702 10.8223 80.9021 10.8223 C 81.0742 10.8223 81.2317 10.7896 81.3729 10.7319 L 81.3729 9.2388 L 83.0073 9.2388 L 83.0077 10.3667 C 83.0077 10.8252 83.9945 10.8711 84.3027 10.8682 C 85.0703 10.8618 86.0345 10.6738 86.0345 9.8975 C 86.0345 8.1313 81.4611 8.6421 81.4291 6.022 C 81.4033 3.8369 83.5639 3.5132 85.0228 3.5132 C 86.0837 3.5132 87.1708 3.6646 87.452 3.79 C 87.6034 3.8584 87.7087 4.0063 87.7087 4.1846 L 87.7087 5.8413 L 86.2733 5.8413 L 86.2733 5.6255 C 86.2733 5.0894 85.5369 5.0732 85.1592 5.0732 C 84.6093 5.0732 83.5889 5.1147 83.5889 5.873 C 83.5889 7.2178 88.2248 6.6948 88.1927 9.8257 C 88.1725 11.8789 86.0322 12.4214 84.3553 12.4214 C 83.4894 12.4214 82.5365 12.3198 81.7209 12.0122 C 81.7002 12.0044 81.6791 11.9961 81.6588 11.9873 C 81.2383 12.2583 80.7391 12.4155 80.2074 12.4155 C 79.0333 12.4155 78.0527 11.6143 78.0523 10.3892 L 78.0508 6.2524 C 78.0504 4.8174 75.458 5.2485 75.458 7.0796 L 75.458 12.3125 L 73.7285 12.3125 C 73.4878 12.3125 73.2967 12.1216 73.2967 11.8799 L 73.2967 10.9028 L 73.2967 10.9028 ZM 97 11.3477 L 96.4808 9.8149 C 95.8068 10.3618 94.9374 10.6895 93.968 10.6895 C 92.4616 10.6968 91.5727 10.124 91.1464 9.2905 C 93.262 9.7666 96.0623 8.6113 96.0623 6.2944 C 96.0623 4.4683 94.5964 3.5146 92.9738 3.5127 C 87.3709 3.5024 86.9583 12.4214 93.6494 12.4214 C 94.8901 12.4214 96.0498 12.0254 97 11.3477 L 97 11.3477 ZM 93.9887 6.2603 C 93.9583 7.4199 92.5814 7.8794 91.6101 7.8809 C 91.3492 7.8809 91.0644 7.8374 90.8374 7.7744 C 90.8163 6.0522 91.9615 5.2856 92.877 5.2837 C 93.4929 5.2822 94.0051 5.6274 93.9887 6.2603 L 93.9887 6.2603 ZM 69.8575 6.2603 C 69.8739 5.6274 69.3617 5.2822 68.7458 5.2837 C 67.8303 5.2856 66.6851 6.0522 66.7062 7.7744 C 66.9332 7.8374 67.218 7.8809 67.4789 7.8809 C 68.4498 7.8794 69.8271 7.4199 69.8575 6.2603 L 69.8575 6.2603 Z" fill="#555845"/>
			<path d="M 13.4876 12.312 L 11.8599 12.312 C 11.0528 12.312 10.7607 11.9688 10.692 11.1431 L 10.2969 5.269 L 10.2797 3.5923 L 7.5493 12.3125 L 5.9383 12.3125 L 3.2079 3.5923 L 3.1907 5.269 L 2.7956 11.1431 C 2.7269 11.9688 2.4348 12.312 1.6277 12.312 L 0 12.312 L 0 11.0112 L 0.2535 11.0112 C 0.4938 11.0112 0.6143 10.8735 0.6315 10.6328 L 1.4666 0.1924 L 3.9119 0.1924 L 6.4875 8.0132 L 6.7438 9.0039 L 6.9997 8.0132 L 9.5756 0.1924 L 12.0209 0.1924 L 12.8561 10.6328 C 12.8732 10.8735 12.9938 11.0112 13.2341 11.0112 L 13.4876 11.0112 L 13.4876 12.312 Z" fill="#555845"/>
			<path d="M 49.8379 5.2734 L 49.8106 8.8594 C 49.8044 9.6885 49.0059 10.6538 48.1603 10.6538 C 47.1243 10.6538 46.6995 9.7217 46.6874 8.585 C 46.6714 7.0508 47.558 5.2388 49.3328 5.2349 C 49.497 5.2339 49.6659 5.2471 49.8379 5.2734 L 49.8379 5.2734 ZM 28.0081 9.3403 L 28.01 10.3867 C 28.0123 11.6128 28.9879 12.415 30.1663 12.415 C 30.8567 12.415 31.6083 12.1147 32.0635 11.6299 C 32.1606 11.5259 32.2457 11.4238 32.321 11.3242 C 32.7072 12.0444 33.4366 12.3916 34.2354 12.3916 C 35.0264 12.3916 35.7789 12.0435 36.2828 11.4346 L 36.2828 11.8564 C 36.2828 12.0981 36.4744 12.2891 36.715 12.2891 L 38.4442 12.2891 L 38.4442 7.0557 C 38.4442 5.2256 41.0369 4.793 41.0369 6.229 L 41.0377 10.3647 C 41.0377 11.5894 42.0222 12.3916 43.1936 12.3916 C 44.0712 12.3916 44.8338 11.9863 45.3499 11.2974 C 45.839 11.9502 46.5622 12.3853 47.5439 12.3853 C 48.7422 12.3853 49.6273 11.6284 49.8699 11.0283 L 49.8699 11.9536 C 49.8699 13.5483 48.8589 14.2754 47.7148 14.2959 C 47.1555 14.3052 46.5634 14.167 46.0422 13.9033 L 45.5468 15.3672 C 48.5234 16.9824 51.9977 15.4209 51.9977 11.6543 L 51.9977 4.2007 C 51.9977 3.9404 51.7984 3.8198 51.6993 3.7881 C 51.0077 3.5645 50.3314 3.4976 49.6456 3.4951 C 46.2201 3.4854 44.5662 6.1753 44.5557 8.5981 C 44.553 9.1909 44.6465 9.7935 44.8431 10.3394 C 44.6306 10.6113 44.2998 10.7983 43.8887 10.7983 C 43.5563 10.7983 43.1982 10.5386 43.1982 10.1069 L 43.1979 5.7139 C 43.1979 4.4668 42.3983 3.6318 41.1379 3.6318 C 40.0898 3.6318 39.1716 3.9688 38.4274 4.7217 C 38.3295 4.1211 37.8154 3.6318 37.1472 3.6318 L 35.633 3.6318 L 35.633 4.9302 L 35.8479 4.9302 C 36.0944 4.9302 36.2828 5.1465 36.2828 5.3633 L 36.2828 9.4927 C 36.2828 10.1533 35.7695 10.7983 34.9792 10.7983 C 34.6235 10.7983 34.2397 10.52 34.2397 10.0581 L 34.2397 4.0703 C 34.2397 3.8291 34.0482 3.6372 33.8079 3.6372 C 33.0145 3.6372 32.2215 3.6372 31.4281 3.6372 L 31.4281 4.936 L 31.6434 4.936 C 31.89 4.936 32.0787 5.1528 32.0787 5.3691 L 32.0799 9.6001 C 32.0799 10.2178 31.6002 10.8208 30.8618 10.8208 C 30.5294 10.8208 30.171 10.561 30.171 10.1289 L 30.1706 8.8262 C 30.1702 7.9287 29.564 7.1724 28.7386 6.9463 C 29.3511 6.4917 29.8047 5.8784 29.8047 4.9614 L 29.8047 4.0947 C 29.8047 3.8525 29.6132 3.6616 29.3725 3.6616 L 27.0579 3.6616 L 27.0579 4.936 L 27.2728 4.936 C 27.5205 4.936 27.7089 5.1528 27.7089 5.3691 C 27.7089 6.3159 27.0427 6.8901 26.2602 7.2715 L 25.4224 7.6797 L 25.4224 0.625 C 25.4224 0.3838 25.2308 0.1924 24.9909 0.1924 L 22.6111 0.1924 L 22.6111 1.4907 L 22.826 1.4907 C 23.073 1.4907 23.2614 1.7075 23.2614 1.9238 L 23.2614 9.5962 C 23.2614 10.2129 22.782 10.8154 22.0436 10.8154 C 21.7117 10.8154 21.3536 10.5557 21.3536 10.124 L 21.3536 6.373 C 21.3536 3.9956 19.4789 3.5029 17.4974 3.501 C 16.9006 3.5 15.3977 3.5483 14.884 3.7778 C 14.7327 3.8457 14.6273 3.9937 14.6273 4.1719 L 14.6273 5.8286 L 16.0628 5.8286 L 16.0628 5.6133 C 16.0628 5.4165 16.1989 5.2573 16.3627 5.2002 C 16.5792 5.1245 17.1596 5.0605 17.6453 5.0605 C 18.7203 5.0605 19.2012 5.5459 19.197 6.3682 L 19.195 6.7979 L 18.8876 6.7979 C 17.2697 6.7979 13.8203 7.1294 13.8203 9.7461 C 13.8203 11.4541 15.2086 12.4087 16.7306 12.4087 C 18.4261 12.4087 19.1337 11.2373 19.2776 10.9604 C 19.5566 11.9014 20.3948 12.4087 21.3489 12.4087 C 22.0366 12.4087 22.7902 12.1152 23.2614 11.606 L 23.2614 12.3125 L 24.9909 12.3125 C 25.2308 12.3125 25.4224 12.1216 25.4224 11.8794 L 25.4224 10.0254 C 25.4224 9.1489 26.2489 8.4741 27.1429 8.4741 C 27.6207 8.4741 28.0073 8.8618 28.0081 9.3403 L 28.0081 9.3403 ZM 15.961 9.6455 C 15.961 8.4565 17.717 8.3057 18.8209 8.3057 L 19.195 8.3057 L 19.195 8.5063 C 19.195 9.5449 18.386 10.751 17.249 10.751 C 16.3792 10.751 15.961 10.2148 15.961 9.6455 L 15.961 9.6455 ZM 33.0219 0 C 33.7576 0 34.3536 0.5972 34.3536 1.3335 C 34.3536 2.0693 33.7576 2.6675 33.0219 2.6675 C 32.2867 2.6675 31.6906 2.0693 31.6906 1.3335 C 31.6906 0.5972 32.2867 0 33.0219 0 Z" fill="#555845"/>
		</g>
	</g>
</svg>