<?xml version="1.0" standalone="no"?>
<!-- Generator: Adobe Fireworks 10, Export SVG Extension by Aaron Beall (http://fireworks.abeall.com) . Version: 0.6.1  -->
<!DOCTYPE svg PUBLIC "-//W3C//DTD SVG 1.1//EN" "http://www.w3.org/Graphics/SVG/1.1/DTD/svg11.dtd">
<svg id="Untitled-P%E1gina%201" viewBox="0 0 31 31" style="background-color:#ffffff00" version="1.1"
	xmlns="http://www.w3.org/2000/svg" xmlns:xlink="http://www.w3.org/1999/xlink" xml:space="preserve"
	x="0px" y="0px" width="31px" height="31px"
>
	<g id="Capa%201">
		<path d="M 15.4659 0 C 6.8884 0 -0.0647 6.9731 -0.0647 15.5703 C -0.0647 24.1714 6.8884 31.1377 15.4659 31.1377 C 24.0494 31.1377 31 24.1714 31 15.5703 C 31 6.9731 24.0494 0 15.4659 0 ZM 17.4067 21.3516 C 16.0399 21.3516 14.7528 20.6123 14.3148 19.7705 C 14.3148 19.7705 13.5781 22.6948 13.423 23.2607 C 12.8741 25.2549 11.2616 27.2515 11.1357 27.4146 C 11.0493 27.5273 10.8555 27.4922 10.8353 27.3413 C 10.8 27.0864 10.3889 24.5703 10.873 22.5171 C 11.1156 21.4863 12.5017 15.6006 12.5017 15.6006 C 12.5017 15.6006 12.0989 14.7881 12.0989 13.5913 C 12.0989 11.71 13.1871 10.3062 14.5405 10.3062 C 15.6908 10.3062 16.2488 11.1724 16.2488 12.2104 C 16.2488 13.3726 15.5114 15.1074 15.1287 16.7158 C 14.8124 18.062 15.8041 19.1616 17.129 19.1616 C 19.527 19.1616 21.1455 16.0698 21.1455 12.4111 C 21.1455 9.6299 19.2761 7.5469 15.8746 7.5469 C 12.0343 7.5469 9.6388 10.4189 9.6388 13.626 C 9.6388 14.7324 9.9661 15.5137 10.4753 16.1167 C 10.7112 16.3936 10.7422 16.5044 10.6583 16.8218 C 10.5962 17.0581 10.4578 17.6191 10.399 17.8408 C 10.3143 18.165 10.0559 18.2793 9.7646 18.1597 C 7.996 17.4365 7.1713 15.4937 7.1713 13.3105 C 7.1713 9.7041 10.2052 5.3804 16.2219 5.3804 C 21.0574 5.3804 24.2407 8.8862 24.2407 12.6528 C 24.2407 17.6323 21.4785 21.3516 17.4067 21.3516 Z" fill="#838370"/>
	</g>
</svg>