<?xml version="1.0" encoding="UTF-8" standalone="no"?>
<svg width="74px" height="74px" viewBox="0 0 74 74" version="1.1" xmlns="http://www.w3.org/2000/svg" xmlns:xlink="http://www.w3.org/1999/xlink">
    <!-- Generator: Sketch 48.2 (47327) - http://www.bohemiancoding.com/sketch -->
    <title>icons/player</title>
    <desc>Created with Sketch.</desc>
    <defs></defs>
    <g id="icons/player" stroke="none" stroke-width="1" fill="none" fill-rule="evenodd">
        <path d="M37,74 C16.5654643,74 0,57.4345357 0,37 C0,16.5654643 16.5654643,0 37,0 C57.4345357,0 74,16.5654643 74,37 C74,57.4345357 57.4345357,74 37,74 Z M47.7054181,39.1303608 C47.8880578,39.0005905 48.0475943,38.841054 48.1773647,38.6584143 C48.8171392,37.7579908 48.6058415,36.5094137 47.7054181,35.8696392 L34.1584143,26.2441365 C33.8199978,26.0036827 33.415143,25.8744973 33,25.8744973 C31.8954305,25.8744973 31,26.7699278 31,27.8744973 L31,47.1255027 C31,47.5406457 31.1291854,47.9455006 31.3696392,48.283917 C32.0094137,49.1843404 33.2579908,49.3956381 34.1584143,48.7558635 L47.7054181,39.1303608 Z" fill="#000000"></path>
    </g>
</svg>