<?xml version="1.0" encoding="UTF-8"?>
<svg width="28px" height="24px" viewBox="0 0 28 24" version="1.1" xmlns="http://www.w3.org/2000/svg" xmlns:xlink="http://www.w3.org/1999/xlink">
    <!-- Generator: Sketch 52.3 (67297) - http://www.bohemiancoding.com/sketch -->
    <title>Artboard</title>
    <desc>Created with Sketch.</desc>
    <g id="Artboard" stroke="none" stroke-width="1" fill="none" fill-rule="evenodd">
        <path d="M14.6557018,15.2468193 C14.6557018,12.8770026 15.197363,10.7451325 16.2807018,8.85114504 C17.3640405,6.95715762 18.7467021,5.36641865 20.4287281,4.07888041 C22.110754,2.79134216 23.9020373,1.76505896 25.8026316,1 L27,2.98727735 L26.9429825,3.60305344 C25.9546734,3.920273 24.9948877,4.56403247 24.0635965,5.53435115 C23.1323053,6.50466982 22.3768304,7.6429112 21.7971491,8.94910941 C21.2174679,10.2553076 20.9276316,11.5428266 20.9276316,12.8117048 C20.9276316,13.6140837 21.0654226,14.3698014 21.3410088,15.0788804 C21.6165949,15.7879594 21.9919567,16.3710749 22.4671053,16.8282443 C22.9422538,17.2854137 23.4744123,17.5419845 24.0635965,17.5979644 L23.9210526,18.7455471 L19.7302632,23 C17.9817164,22.5335006 16.6988345,21.5631965 15.8815789,20.0890585 C15.0643234,18.6149205 14.6557018,17.0008569 14.6557018,15.2468193 Z M1,15.2468193 C1,12.8770026 1.54166125,10.7451325 2.625,8.85114504 C3.70833875,6.95715762 5.09100036,5.36641865 6.77302632,4.07888041 C8.45505227,2.79134216 10.2463355,1.76505896 12.1469298,1 L13.3442982,2.98727735 L13.2872807,3.60305344 C12.2989717,3.920273 11.3391859,4.56403247 10.4078947,5.53435115 C9.47660353,6.50466982 8.72112863,7.6429112 8.14144737,8.94910941 C7.56176611,10.2553076 7.27192982,11.5428266 7.27192982,12.8117048 C7.27192982,13.6140837 7.40972084,14.3698014 7.68530702,15.0788804 C7.96089319,15.7879594 8.33625493,16.3710749 8.81140351,16.8282443 C9.28655208,17.2854137 9.8187105,17.5419845 10.4078947,17.5979644 L10.2653509,18.7455471 L6.0745614,23 C4.32601465,22.5335006 3.04313274,21.5631965 2.22587719,20.0890585 C1.40862164,18.6149205 1,17.0008569 1,15.2468193 Z" id="“" fill="#FEEC9D"></path>
    </g>
</svg>