<?xml version="1.0" standalone="no"?><!-- Generator: Adobe Fireworks CS6, Export SVG Extension by Aaron Beall (http://fireworks.abeall.com) . Version: 0.6.1  --><!DOCTYPE svg PUBLIC "-//W3C//DTD SVG 1.1//EN" "http://www.w3.org/Graphics/SVG/1.1/DTD/svg11.dtd"><svg id="Untitled-Page%201" viewBox="0 0 56 46" style="background-color:#ffffff00" version="1.1"	xmlns="http://www.w3.org/2000/svg" xmlns:xlink="http://www.w3.org/1999/xlink" xml:space="preserve"	x="0px" y="0px" width="56px" height="46px">	<g id="Layer%201">		<g>			<path d="M 0.0625 30.8281 C 0.0625 40.5696 5.7814 45.9373 12.2892 45.9373 C 18.2053 45.9373 22.9375 41.166 22.9375 35.2017 C 22.9375 29.4363 18.7969 25.0623 13.2752 25.0623 C 12.2892 25.0623 10.9088 25.4602 10.7115 25.4602 C 11.5004 19.0625 17.0221 11.0625 23.3523 6.8625 L 16.0361 0.8628 C 6.9647 7.2627 0.0625 18.6624 0.0625 30.8281 L 0.0625 30.8281 ZM 32.0625 30.8281 C 32.0625 40.5696 37.7814 45.9373 44.2892 45.9373 C 50.2053 45.9373 54.9375 41.166 54.9375 35.2017 C 54.9375 29.4363 50.7969 25.0623 45.2752 25.0623 C 44.4864 25.0623 43.106 25.4602 42.7115 25.4602 C 43.5004 19.0625 49.0221 11.0625 55.3375 6.8625 L 48.0361 0.8628 C 38.9647 7.2627 32.0625 18.6624 32.0625 30.8281 L 32.0625 30.8281 Z" fill="#838370"/>		</g>	</g></svg>