<?xml version="1.0" standalone="no"?>
<!-- Generator: Adobe Fireworks 10, Export SVG Extension by Aaron Beall (http://fireworks.abeall.com) . Version: 0.6.1  -->
<!DOCTYPE svg PUBLIC "-//W3C//DTD SVG 1.1//EN" "http://www.w3.org/Graphics/SVG/1.1/DTD/svg11.dtd">
<svg id="Untitled-P%E1gina%201" viewBox="0 0 31 31" style="background-color:#ffffff00" version="1.1"
	xmlns="http://www.w3.org/2000/svg" xmlns:xlink="http://www.w3.org/1999/xlink" xml:space="preserve"
	x="0px" y="0px" width="31px" height="31px"
>
	<g id="Capa%201">
		<path d="M 15.5482 0 C 6.9707 0 0.0176 6.9731 0.0176 15.5703 C 0.0176 24.1714 6.9707 31.1377 15.5482 31.1377 C 24.1316 31.1377 31.0822 24.1714 31.0822 15.5703 C 31.0822 6.9731 24.1316 0 15.5482 0 ZM 24.8724 16.2759 C 24.8724 17.7881 24.6862 19.3013 24.6862 19.3013 C 24.6862 19.3013 24.5033 20.5879 23.9445 21.1558 C 23.2363 21.8989 22.4418 21.9043 22.0768 21.9478 C 19.4673 22.1362 15.5498 22.1421 15.5498 22.1421 C 15.5498 22.1421 10.7019 22.0986 9.2109 21.9546 C 8.7955 21.8765 7.8643 21.8989 7.1553 21.1558 C 6.5964 20.5879 6.4136 19.3013 6.4136 19.3013 C 6.4136 19.3013 6.2273 17.7881 6.2273 16.2759 L 6.2273 14.8579 C 6.2273 13.3447 6.4136 11.8335 6.4136 11.8335 C 6.4136 11.8335 6.5964 10.5449 7.1553 9.978 C 7.8643 9.2339 8.6588 9.2305 9.0238 9.1865 C 11.6323 8.9966 15.5457 8.9966 15.5457 8.9966 C 15.5457 8.9966 19.4673 8.9966 22.0768 9.1865 C 22.4418 9.2305 23.2363 9.2339 23.9445 9.978 C 24.5033 10.5449 24.6862 11.8335 24.6862 11.8335 C 24.6862 11.8335 24.8724 13.3447 24.8724 14.8579 L 24.8724 16.2759 ZM 13.6243 17.9941 L 18.6619 15.3774 L 13.6243 12.7427 L 13.6243 17.9941 Z" fill="#838370"/>
	</g>
</svg>