<?xml version="1.0" standalone="no"?><!-- Generator: Adobe Fireworks CS6, Export SVG Extension by Aaron Beall (http://fireworks.abeall.com) . Version: 0.6.1  --><!DOCTYPE svg PUBLIC "-//W3C//DTD SVG 1.1//EN" "http://www.w3.org/Graphics/SVG/1.1/DTD/svg11.dtd"><svg id="Untitled-Page%201" viewBox="0 0 26 26" style="background-color:#ffffff00" version="1.1"	xmlns="http://www.w3.org/2000/svg" xmlns:xlink="http://www.w3.org/1999/xlink" xml:space="preserve"	x="0px" y="0px" width="26px" height="26px">	<g id="Layer%201">		<path d="M 2 13 C 2 6.9248 6.9248 2 13 2 C 19.0752 2 24 6.9248 24 13 C 24 19.0752 19.0752 24 13 24 C 6.9248 24 2 19.0752 2 13 ZM 1 13 C 1 19.6275 6.3725 25 13 25 C 19.6275 25 25 19.6275 25 13 C 25 6.3725 19.6275 1 13 1 C 6.3725 1 1 6.3725 1 13 Z" fill="#b4b1a5"/>		<rect x="12" y="6" width="1" height="8" fill="#b4b1a5"/>		<rect x="12" y="13" width="7" height="1" fill="#b4b1a5"/>	</g></svg>