<?xml version="1.0" standalone="no"?>
<!-- Generator: Adobe Fireworks 10, Export SVG Extension by Aaron Beall (http://fireworks.abeall.com) . Version: 0.6.1  -->
<!DOCTYPE svg PUBLIC "-//W3C//DTD SVG 1.1//EN" "http://www.w3.org/Graphics/SVG/1.1/DTD/svg11.dtd">
<svg id="Untitled-P%E1gina%201" viewBox="0 0 31 31" style="background-color:#ffffff00" version="1.1"
	xmlns="http://www.w3.org/2000/svg" xmlns:xlink="http://www.w3.org/1999/xlink" xml:space="preserve"
	x="0px" y="0px" width="31px" height="31px"
>
	<g id="Capa%201">
		<path d="M 15.6304 -0.1387 C 7.0503 -0.1387 0.0997 6.835 0.0997 15.4321 C 0.0997 24.0327 7.0503 31 15.6304 31 C 24.2079 31 31.1643 24.0327 31.1643 15.4321 C 31.1643 6.835 24.2079 -0.1387 15.6304 -0.1387 ZM 19.74 15.3652 L 17.0551 15.3652 C 17.0551 19.6743 17.0551 24.98 17.0551 24.98 L 13.0646 24.98 C 13.0646 24.98 13.0646 19.73 13.0646 15.3652 L 11.1692 15.3652 L 11.1692 11.9688 L 13.0646 11.9688 L 13.0646 9.7705 C 13.0646 8.1958 13.8171 5.7402 17.092 5.7402 L 20.0404 5.752 L 20.0404 9.0469 C 20.0404 9.0469 18.2482 9.0469 17.8966 9.0469 C 17.551 9.0469 17.0551 9.2222 17.0551 9.9741 L 17.0551 11.9688 L 20.0924 11.9688 L 19.74 15.3652 Z" fill="#838370"/>
	</g>
</svg>