<?xml version="1.0" encoding="utf-8"?>
<!-- Generator: Adobe Illustrator 16.0.0, SVG Export Plug-In . SVG Version: 6.00 Build 0)  -->
<!DOCTYPE svg PUBLIC "-//W3C//DTD SVG 1.1//EN" "http://www.w3.org/Graphics/SVG/1.1/DTD/svg11.dtd">
<svg version="1.1" id="Layer_1" xmlns="http://www.w3.org/2000/svg" xmlns:xlink="http://www.w3.org/1999/xlink" x="0px" y="0px"
	 width="31px" height="31px" viewBox="0 0 31 31" enable-background="new 0 0 31 31" xml:space="preserve">
<path fill-rule="evenodd" clip-rule="evenodd" fill="#838370" d="M15.5,0C6.938,0,0,6.938,0,15.5S6.938,31,15.5,31
	S31,24.062,31,15.5S24.062,0,15.5,0z M11.65,23.191c-4.173,0-7.556-3.383-7.556-7.557c0-4.173,3.383-7.557,7.556-7.557
	c1.942,0,3.713,0.733,5.052,1.938c-0.49,0.49-1.179,1.179-2.146,2.146l0.003-0.003c-0.78-0.708-1.816-1.116-2.961-1.116
	c-2.463,0-4.461,2.063-4.461,4.607c0,2.545,1.998,4.607,4.461,4.607c2.358,0,3.745-1.299,4.226-3.088h-4.183v-2.977h7.152
	C19.492,16.898,18.314,23.191,11.65,23.191z M25.469,16.4v2.731h-1.82V16.4h-2.731V14.58h2.731v-2.731h1.82v2.731H28.2V16.4H25.469z
	"/>
</svg>
