<?xml version="1.0" encoding="utf-8"?>
<!-- Generator: Adobe Illustrator 16.0.0, SVG Export Plug-In . SVG Version: 6.00 Build 0)  -->
<!DOCTYPE svg PUBLIC "-//W3C//DTD SVG 1.1//EN" "http://www.w3.org/Graphics/SVG/1.1/DTD/svg11.dtd">
<svg version="1.1" id="Layer_1" xmlns="http://www.w3.org/2000/svg" xmlns:xlink="http://www.w3.org/1999/xlink" x="0px" y="0px"
	 width="31px" height="31px" viewBox="0 0 31 31" enable-background="new 0 0 31 31" xml:space="preserve">
<g>
	<g>
		<polygon fill="#838370" points="21.898,12.107 21.898,9.261 19.043,9.261 19.052,12.117 		"/>
		<path fill="#838370" d="M15.423,18.701c1.636,0,2.967-1.33,2.967-2.965c0-0.646-0.21-1.243-0.562-1.73
			c-0.538-0.746-1.415-1.236-2.404-1.236s-1.865,0.49-2.404,1.236c-0.352,0.488-0.561,1.085-0.561,1.73
			C12.458,17.372,13.788,18.701,15.423,18.701z"/>
		<path fill="#838370" d="M15.501,0C6.939,0,0,6.939,0,15.499C0,24.061,6.939,31,15.501,31C24.061,31,31,24.061,31,15.499
			C31,6.939,24.06,0,15.501,0z M23.85,14.006v6.899c0,1.797-1.463,3.256-3.258,3.256H10.254c-1.796,0-3.257-1.459-3.257-3.256
			v-6.899v-3.439c0-1.796,1.461-3.256,3.257-3.256h10.338c1.795,0,3.258,1.459,3.258,3.256V14.006z"/>
		<path fill="#838370" d="M20.03,15.736c0,2.54-2.066,4.607-4.607,4.607s-4.606-2.068-4.606-4.607c0-0.613,0.122-1.195,0.338-1.73
			H8.639v6.899c0,0.891,0.724,1.615,1.615,1.615h10.338c0.89,0,1.614-0.725,1.614-1.615v-6.899h-2.518
			C19.908,14.541,20.03,15.125,20.03,15.736z"/>
	</g>
</g>
</svg>
