<?xml version="1.0" standalone="no"?>
<!-- Generator: Adobe Fireworks 10, Export SVG Extension by Aaron Beall (http://fireworks.abeall.com) . Version: 0.6.1  -->
<!DOCTYPE svg PUBLIC "-//W3C//DTD SVG 1.1//EN" "http://www.w3.org/Graphics/SVG/1.1/DTD/svg11.dtd">
<svg id="Untitled-P%E1gina%201" viewBox="0 0 31 31" style="background-color:#ffffff00" version="1.1"
	xmlns="http://www.w3.org/2000/svg" xmlns:xlink="http://www.w3.org/1999/xlink" xml:space="preserve"
	x="0px" y="0px" width="31px" height="31px"
>
	<g id="Capa%201">
		<path d="M 24 22.7871 C 24 23.4575 23.4453 24 22.7607 24 L 9.2393 24 C 8.5546 24 8 23.4575 8 22.7871 L 8 9.2129 C 8 8.5444 8.5546 8 9.2393 8 L 22.7607 8 C 23.4453 8 24 8.5444 24 9.2129 L 24 22.7871 ZM 15.5482 0 C 6.9707 0 0.0176 6.9731 0.0176 15.5703 C 0.0176 24.1714 6.9707 31.1377 15.5482 31.1377 C 24.1316 31.1377 31.0822 24.1714 31.0822 15.5703 C 31.0822 6.9731 24.1316 0 15.5482 0 ZM 10.0978 21.562 L 12.6309 21.562 L 12.6309 13.9243 L 10.0978 13.9243 L 10.0978 21.562 ZM 11.3806 10.2407 C 10.5148 10.2407 9.9475 10.8115 9.9475 11.5601 C 9.9475 12.2925 10.4971 12.8804 11.3472 12.8804 L 11.3639 12.8804 C 12.2473 12.8804 12.7979 12.2925 12.7979 11.5601 C 12.781 10.8115 12.2473 10.2407 11.3806 10.2407 ZM 18.8481 13.7441 C 17.5039 13.7441 16.9023 14.4844 16.5651 15.0049 L 16.5651 15.0303 L 16.5483 15.0303 L 16.5651 15.0049 L 16.5651 13.9243 L 14.032 13.9243 C 14.0656 14.6401 14.032 21.562 14.032 21.562 L 16.5651 21.562 L 16.5651 17.2959 C 16.5651 17.0664 16.5818 16.8408 16.6482 16.6772 C 16.8319 16.2222 17.2489 15.7476 17.9487 15.7476 C 18.8657 15.7476 19.2316 16.4492 19.2316 17.4751 L 19.2316 21.562 L 21.7646 21.562 L 21.7646 17.1826 C 21.7646 14.8359 20.5144 13.7441 18.8481 13.7441 Z" fill="#838370"/>
	</g>
</svg>