<?xml version="1.0" standalone="no"?>
<!-- Generator: Adobe Fireworks 10, Export SVG Extension by Aaron Beall (http://fireworks.abeall.com) . Version: 0.6.1  -->
<!DOCTYPE svg PUBLIC "-//W3C//DTD SVG 1.1//EN" "http://www.w3.org/Graphics/SVG/1.1/DTD/svg11.dtd">
<svg id="Untitled-P%E1gina%201" viewBox="0 0 31 31" style="background-color:#ffffff00" version="1.1"
	xmlns="http://www.w3.org/2000/svg" xmlns:xlink="http://www.w3.org/1999/xlink" xml:space="preserve"
	x="0px" y="0px" width="31px" height="31px"
>
	<g id="Capa%201">
		<path d="M 15.5306 -0.1387 C 6.9531 -0.1387 0 6.835 0 15.4321 C 0 24.0327 6.9531 31 15.5306 31 C 24.114 31 31.0647 24.0327 31.0647 15.4321 C 31.0647 6.835 24.114 -0.1387 15.5306 -0.1387 ZM 23.3589 12.29 C 23.3673 12.4619 23.3706 12.6318 23.3706 12.7998 C 23.3706 17.9824 19.4321 23.9653 12.2316 23.9653 C 10.0198 23.9653 7.9658 23.3164 6.229 22.2012 C 6.5378 22.2397 6.8491 22.2549 7.1638 22.2549 C 8.9988 22.2549 10.6869 21.6274 12.0234 20.5762 C 10.3135 20.5459 8.8704 19.4072 8.3719 17.8511 C 8.6102 17.8965 8.8518 17.9219 9.1062 17.9219 C 9.4609 17.9219 9.8092 17.873 10.1399 17.7837 C 8.3442 17.4224 6.9958 15.8379 6.9958 13.9404 C 6.9958 13.9185 6.9958 13.9033 6.9958 13.8882 C 7.5254 14.1826 8.127 14.356 8.7697 14.3774 C 7.7209 13.6729 7.0295 12.4751 7.0295 11.1108 C 7.0295 10.3926 7.2224 9.7168 7.5588 9.1396 C 9.4878 11.5112 12.3716 13.0757 15.6313 13.2354 C 15.5608 12.9531 15.5273 12.6519 15.5273 12.3457 C 15.5273 10.1792 17.2793 8.4199 19.4414 8.4199 C 20.5699 8.4199 21.5852 8.8975 22.2976 9.6611 C 23.1936 9.4829 24.0284 9.1548 24.7869 8.7075 C 24.4933 9.624 23.8723 10.3926 23.0652 10.8774 C 23.854 10.7832 24.6057 10.5713 25.3123 10.2583 C 24.7896 11.0454 24.1233 11.7349 23.3589 12.29 Z" fill="#838370"/>
	</g>
</svg>